<mxfile host="app.diagrams.net" modified="2024-06-06T09:59:19.681Z" agent="Mozilla/5.0 (Macintosh; Intel Mac OS X 10_15_7) AppleWebKit/537.36 (KHTML, like Gecko) Chrome/125.0.0.0 Safari/537.36" etag="hKaPhkRDRpMfkCi6vFTm" version="24.4.15" type="github">
  <diagram id="jUWqlEmEsAWR3qF8ODpq" name="第 1 页">
    <mxGraphModel dx="2486" dy="917" grid="1" gridSize="10" guides="1" tooltips="1" connect="1" arrows="1" fold="1" page="1" pageScale="1" pageWidth="827" pageHeight="1169" math="0" shadow="0">
      <root>
        <mxCell id="0" />
        <mxCell id="1" parent="0" />
        <mxCell id="voRtTwLC1918llqAot6V-5" value="" style="group" parent="1" vertex="1" connectable="0">
          <mxGeometry x="-710" y="225" width="530" height="360" as="geometry" />
        </mxCell>
        <mxCell id="voRtTwLC1918llqAot6V-6" value="" style="rounded=0;whiteSpace=wrap;html=1;direction=south;fillColor=#d5e8d4;strokeColor=#82b366;" parent="voRtTwLC1918llqAot6V-5" vertex="1">
          <mxGeometry x="-20" y="-75" width="550" height="420" as="geometry" />
        </mxCell>
        <mxCell id="voRtTwLC1918llqAot6V-2" value="node1" style="rounded=0;whiteSpace=wrap;html=1;" parent="voRtTwLC1918llqAot6V-5" vertex="1">
          <mxGeometry width="120" height="60" as="geometry" />
        </mxCell>
        <mxCell id="voRtTwLC1918llqAot6V-3" value="master" style="rounded=0;whiteSpace=wrap;html=1;" parent="voRtTwLC1918llqAot6V-5" vertex="1">
          <mxGeometry y="100" width="120" height="60" as="geometry" />
        </mxCell>
        <mxCell id="voRtTwLC1918llqAot6V-4" value="node2" style="rounded=0;whiteSpace=wrap;html=1;" parent="voRtTwLC1918llqAot6V-5" vertex="1">
          <mxGeometry y="200" width="120" height="60" as="geometry" />
        </mxCell>
        <mxCell id="voRtTwLC1918llqAot6V-9" value="&lt;font style=&quot;font-size: 20px;&quot;&gt;k8s集群&lt;/font&gt;" style="text;html=1;strokeColor=none;fillColor=none;align=center;verticalAlign=middle;whiteSpace=wrap;rounded=0;" parent="voRtTwLC1918llqAot6V-5" vertex="1">
          <mxGeometry x="10" y="296" width="100" height="44" as="geometry" />
        </mxCell>
        <mxCell id="voRtTwLC1918llqAot6V-11" value="&lt;font style=&quot;font-size: 12px;&quot;&gt;prometheus&lt;/font&gt;" style="rounded=0;whiteSpace=wrap;html=1;fontSize=20;" parent="voRtTwLC1918llqAot6V-5" vertex="1">
          <mxGeometry x="190" y="105" width="120" height="60" as="geometry" />
        </mxCell>
        <mxCell id="voRtTwLC1918llqAot6V-1" value="transfer" style="rounded=0;whiteSpace=wrap;html=1;" parent="voRtTwLC1918llqAot6V-5" vertex="1">
          <mxGeometry x="390" y="105" width="120" height="60" as="geometry" />
        </mxCell>
        <mxCell id="voRtTwLC1918llqAot6V-12" value="" style="edgeStyle=orthogonalEdgeStyle;rounded=0;orthogonalLoop=1;jettySize=auto;html=1;fontSize=20;" parent="voRtTwLC1918llqAot6V-5" source="voRtTwLC1918llqAot6V-11" target="voRtTwLC1918llqAot6V-1" edge="1">
          <mxGeometry relative="1" as="geometry" />
        </mxCell>
        <mxCell id="voRtTwLC1918llqAot6V-17" value="exporter" style="edgeLabel;html=1;align=center;verticalAlign=middle;resizable=0;points=[];fontSize=12;" parent="voRtTwLC1918llqAot6V-12" vertex="1" connectable="0">
          <mxGeometry x="-0.1138" relative="1" as="geometry">
            <mxPoint as="offset" />
          </mxGeometry>
        </mxCell>
        <mxCell id="B2P0yWYkD3pAh-6pQ9Ea-43" value="" style="edgeStyle=orthogonalEdgeStyle;rounded=0;orthogonalLoop=1;jettySize=auto;html=1;" parent="1" source="B2P0yWYkD3pAh-6pQ9Ea-41" target="B2P0yWYkD3pAh-6pQ9Ea-13" edge="1">
          <mxGeometry relative="1" as="geometry">
            <Array as="points">
              <mxPoint x="-10" y="700" />
              <mxPoint x="-10" y="700" />
            </Array>
          </mxGeometry>
        </mxCell>
        <mxCell id="B2P0yWYkD3pAh-6pQ9Ea-49" style="edgeStyle=orthogonalEdgeStyle;rounded=0;orthogonalLoop=1;jettySize=auto;html=1;exitX=0.25;exitY=0;exitDx=0;exitDy=0;entryX=0;entryY=0.5;entryDx=0;entryDy=0;" parent="1" source="B2P0yWYkD3pAh-6pQ9Ea-41" target="B2P0yWYkD3pAh-6pQ9Ea-2" edge="1">
          <mxGeometry relative="1" as="geometry" />
        </mxCell>
        <mxCell id="B2P0yWYkD3pAh-6pQ9Ea-50" value="拉数据" style="edgeLabel;html=1;align=center;verticalAlign=middle;resizable=0;points=[];" parent="B2P0yWYkD3pAh-6pQ9Ea-49" vertex="1" connectable="0">
          <mxGeometry x="0.0191" y="1" relative="1" as="geometry">
            <mxPoint as="offset" />
          </mxGeometry>
        </mxCell>
        <mxCell id="B2P0yWYkD3pAh-6pQ9Ea-41" value="&lt;br&gt;&lt;br&gt;&lt;br&gt;&lt;br&gt;&lt;br&gt;&lt;br&gt;influxdb集群" style="rounded=0;whiteSpace=wrap;html=1;fillColor=#dae8fc;strokeColor=#6c8ebf;" parent="1" vertex="1">
          <mxGeometry x="-220" y="730" width="410" height="110" as="geometry" />
        </mxCell>
        <mxCell id="B2P0yWYkD3pAh-6pQ9Ea-5" value="下发监控配置" style="edgeStyle=orthogonalEdgeStyle;rounded=0;orthogonalLoop=1;jettySize=auto;html=1;entryX=0.5;entryY=0;entryDx=0;entryDy=0;" parent="1" source="B2P0yWYkD3pAh-6pQ9Ea-1" target="B2P0yWYkD3pAh-6pQ9Ea-3" edge="1">
          <mxGeometry relative="1" as="geometry" />
        </mxCell>
        <mxCell id="B2P0yWYkD3pAh-6pQ9Ea-1" value="dashboard" style="rounded=1;whiteSpace=wrap;html=1;" parent="1" vertex="1">
          <mxGeometry x="-70" y="180" width="120" height="60" as="geometry" />
        </mxCell>
        <mxCell id="B2P0yWYkD3pAh-6pQ9Ea-6" value="拉取监控数据" style="edgeStyle=orthogonalEdgeStyle;rounded=0;orthogonalLoop=1;jettySize=auto;html=1;entryX=0.5;entryY=1;entryDx=0;entryDy=0;" parent="1" source="B2P0yWYkD3pAh-6pQ9Ea-2" target="B2P0yWYkD3pAh-6pQ9Ea-1" edge="1">
          <mxGeometry relative="1" as="geometry" />
        </mxCell>
        <mxCell id="B2P0yWYkD3pAh-6pQ9Ea-22" value="" style="edgeStyle=orthogonalEdgeStyle;rounded=0;orthogonalLoop=1;jettySize=auto;html=1;" parent="1" source="B2P0yWYkD3pAh-6pQ9Ea-2" target="B2P0yWYkD3pAh-6pQ9Ea-3" edge="1">
          <mxGeometry relative="1" as="geometry" />
        </mxCell>
        <mxCell id="B2P0yWYkD3pAh-6pQ9Ea-23" value="拉数据" style="edgeLabel;html=1;align=center;verticalAlign=middle;resizable=0;points=[];" parent="B2P0yWYkD3pAh-6pQ9Ea-22" vertex="1" connectable="0">
          <mxGeometry x="-0.1556" relative="1" as="geometry">
            <mxPoint as="offset" />
          </mxGeometry>
        </mxCell>
        <mxCell id="B2P0yWYkD3pAh-6pQ9Ea-2" value="graph" style="rounded=1;whiteSpace=wrap;html=1;" parent="1" vertex="1">
          <mxGeometry x="-70" y="330" width="120" height="60" as="geometry" />
        </mxCell>
        <mxCell id="B2P0yWYkD3pAh-6pQ9Ea-53" value="" style="edgeStyle=orthogonalEdgeStyle;rounded=0;orthogonalLoop=1;jettySize=auto;html=1;" parent="1" source="B2P0yWYkD3pAh-6pQ9Ea-3" target="B2P0yWYkD3pAh-6pQ9Ea-52" edge="1">
          <mxGeometry relative="1" as="geometry" />
        </mxCell>
        <mxCell id="B2P0yWYkD3pAh-6pQ9Ea-56" value="发送告警" style="edgeLabel;html=1;align=center;verticalAlign=middle;resizable=0;points=[];" parent="B2P0yWYkD3pAh-6pQ9Ea-53" vertex="1" connectable="0">
          <mxGeometry x="-0.066" y="2" relative="1" as="geometry">
            <mxPoint as="offset" />
          </mxGeometry>
        </mxCell>
        <mxCell id="B2P0yWYkD3pAh-6pQ9Ea-3" value="alerter" style="rounded=1;whiteSpace=wrap;html=1;" parent="1" vertex="1">
          <mxGeometry x="140" y="330" width="120" height="60" as="geometry" />
        </mxCell>
        <mxCell id="B2P0yWYkD3pAh-6pQ9Ea-9" value="拉数据" style="edgeStyle=orthogonalEdgeStyle;rounded=0;orthogonalLoop=1;jettySize=auto;html=1;" parent="1" source="B2P0yWYkD3pAh-6pQ9Ea-7" target="B2P0yWYkD3pAh-6pQ9Ea-2" edge="1">
          <mxGeometry relative="1" as="geometry" />
        </mxCell>
        <mxCell id="B2P0yWYkD3pAh-6pQ9Ea-16" value="prometheus格式" style="edgeLabel;html=1;align=center;verticalAlign=middle;resizable=0;points=[];" parent="B2P0yWYkD3pAh-6pQ9Ea-9" vertex="1" connectable="0">
          <mxGeometry x="-0.6952" y="2" relative="1" as="geometry">
            <mxPoint as="offset" />
          </mxGeometry>
        </mxCell>
        <mxCell id="B2P0yWYkD3pAh-6pQ9Ea-7" value="prometheus" style="rounded=1;whiteSpace=wrap;html=1;" parent="1" vertex="1">
          <mxGeometry x="-70" y="500" width="120" height="60" as="geometry" />
        </mxCell>
        <mxCell id="B2P0yWYkD3pAh-6pQ9Ea-14" value="" style="edgeStyle=orthogonalEdgeStyle;rounded=0;orthogonalLoop=1;jettySize=auto;html=1;" parent="1" source="B2P0yWYkD3pAh-6pQ9Ea-13" target="B2P0yWYkD3pAh-6pQ9Ea-7" edge="1">
          <mxGeometry relative="1" as="geometry" />
        </mxCell>
        <mxCell id="B2P0yWYkD3pAh-6pQ9Ea-15" value="语法转换" style="edgeLabel;html=1;align=center;verticalAlign=middle;resizable=0;points=[];" parent="B2P0yWYkD3pAh-6pQ9Ea-14" vertex="1" connectable="0">
          <mxGeometry x="-0.3333" y="-2" relative="1" as="geometry">
            <mxPoint as="offset" />
          </mxGeometry>
        </mxCell>
        <mxCell id="B2P0yWYkD3pAh-6pQ9Ea-13" value="prometheus-proxy" style="rounded=1;whiteSpace=wrap;html=1;" parent="1" vertex="1">
          <mxGeometry x="-70" y="600" width="120" height="60" as="geometry" />
        </mxCell>
        <mxCell id="B2P0yWYkD3pAh-6pQ9Ea-31" style="edgeStyle=orthogonalEdgeStyle;rounded=0;orthogonalLoop=1;jettySize=auto;html=1;" parent="1" source="B2P0yWYkD3pAh-6pQ9Ea-29" edge="1">
          <mxGeometry relative="1" as="geometry">
            <mxPoint x="-9.999999999999773" y="420" as="targetPoint" />
            <Array as="points">
              <mxPoint x="280" y="440" />
              <mxPoint x="-10" y="440" />
            </Array>
          </mxGeometry>
        </mxCell>
        <mxCell id="B2P0yWYkD3pAh-6pQ9Ea-51" value="other数据源" style="edgeLabel;html=1;align=center;verticalAlign=middle;resizable=0;points=[];" parent="B2P0yWYkD3pAh-6pQ9Ea-31" vertex="1" connectable="0">
          <mxGeometry x="-0.8375" y="-3" relative="1" as="geometry">
            <mxPoint y="-1" as="offset" />
          </mxGeometry>
        </mxCell>
        <mxCell id="B2P0yWYkD3pAh-6pQ9Ea-29" value="datasource-proxy" style="rounded=1;whiteSpace=wrap;html=1;" parent="1" vertex="1">
          <mxGeometry x="220" y="490" width="120" height="60" as="geometry" />
        </mxCell>
        <mxCell id="B2P0yWYkD3pAh-6pQ9Ea-36" style="edgeStyle=orthogonalEdgeStyle;rounded=0;orthogonalLoop=1;jettySize=auto;html=1;entryX=0.5;entryY=1;entryDx=0;entryDy=0;" parent="1" source="B2P0yWYkD3pAh-6pQ9Ea-33" target="B2P0yWYkD3pAh-6pQ9Ea-29" edge="1">
          <mxGeometry relative="1" as="geometry" />
        </mxCell>
        <mxCell id="B2P0yWYkD3pAh-6pQ9Ea-33" value="datasource1" style="rounded=1;whiteSpace=wrap;html=1;" parent="1" vertex="1">
          <mxGeometry x="160" y="600" width="120" height="60" as="geometry" />
        </mxCell>
        <mxCell id="B2P0yWYkD3pAh-6pQ9Ea-37" style="edgeStyle=orthogonalEdgeStyle;rounded=0;orthogonalLoop=1;jettySize=auto;html=1;" parent="1" source="B2P0yWYkD3pAh-6pQ9Ea-34" target="B2P0yWYkD3pAh-6pQ9Ea-29" edge="1">
          <mxGeometry relative="1" as="geometry" />
        </mxCell>
        <mxCell id="B2P0yWYkD3pAh-6pQ9Ea-34" value="datasource2" style="rounded=1;whiteSpace=wrap;html=1;" parent="1" vertex="1">
          <mxGeometry x="310" y="600" width="120" height="60" as="geometry" />
        </mxCell>
        <mxCell id="B2P0yWYkD3pAh-6pQ9Ea-40" value="" style="group" parent="1" vertex="1" connectable="0">
          <mxGeometry x="-160" y="760" width="300" height="50" as="geometry" />
        </mxCell>
        <mxCell id="B2P0yWYkD3pAh-6pQ9Ea-24" value="influxdb" style="rounded=1;whiteSpace=wrap;html=1;container=0;" parent="B2P0yWYkD3pAh-6pQ9Ea-40" vertex="1">
          <mxGeometry width="120" height="50" as="geometry" />
        </mxCell>
        <mxCell id="B2P0yWYkD3pAh-6pQ9Ea-26" value="influxdb" style="rounded=1;whiteSpace=wrap;html=1;container=0;" parent="B2P0yWYkD3pAh-6pQ9Ea-40" vertex="1">
          <mxGeometry x="180" width="120" height="50" as="geometry" />
        </mxCell>
        <mxCell id="B2P0yWYkD3pAh-6pQ9Ea-52" value="用户" style="rounded=1;whiteSpace=wrap;html=1;" parent="1" vertex="1">
          <mxGeometry x="330" y="330" width="120" height="60" as="geometry" />
        </mxCell>
        <mxCell id="B2P0yWYkD3pAh-6pQ9Ea-55" value="" style="edgeStyle=orthogonalEdgeStyle;rounded=0;orthogonalLoop=1;jettySize=auto;html=1;" parent="1" source="B2P0yWYkD3pAh-6pQ9Ea-54" target="B2P0yWYkD3pAh-6pQ9Ea-1" edge="1">
          <mxGeometry relative="1" as="geometry" />
        </mxCell>
        <mxCell id="B2P0yWYkD3pAh-6pQ9Ea-54" value="用户" style="rounded=1;whiteSpace=wrap;html=1;" parent="1" vertex="1">
          <mxGeometry x="-70" y="80" width="120" height="60" as="geometry" />
        </mxCell>
        <mxCell id="voRtTwLC1918llqAot6V-8" value="" style="edgeStyle=orthogonalEdgeStyle;rounded=0;orthogonalLoop=1;jettySize=auto;html=1;" parent="1" source="voRtTwLC1918llqAot6V-1" target="B2P0yWYkD3pAh-6pQ9Ea-2" edge="1">
          <mxGeometry relative="1" as="geometry" />
        </mxCell>
        <mxCell id="voRtTwLC1918llqAot6V-10" value="&lt;font style=&quot;font-size: 12px;&quot;&gt;push&lt;/font&gt;" style="edgeLabel;html=1;align=center;verticalAlign=middle;resizable=0;points=[];fontSize=20;" parent="voRtTwLC1918llqAot6V-8" vertex="1" connectable="0">
          <mxGeometry x="-0.3755" y="-2" relative="1" as="geometry">
            <mxPoint as="offset" />
          </mxGeometry>
        </mxCell>
      </root>
    </mxGraphModel>
  </diagram>
</mxfile>
